# xmcd
#
# Track frame offsets:
#	150
#	13066
#	21762
#	36124
#	47026
#	59068
#	74826
#	85640
#	99345
#	116223
#	132044
#	143302
#	157667
#	175380
#	183564
#	195360
#	210885
#	226047
#	239819
#	255316
#	268659
#	279123
#	292861
#
# Disc length: 4070 seconds
#
# Revision: 0
# Processed by: cddbd v1.5.1PL0 Copyright (c) Steve Scherf et al.
# Submitted via: dBpowerAMP V4.0
#
DISCID=350fe417
DTITLE=Various Artist - Super temas
DYEAR=1900
DGENRE=Country
TTITLE0=Borracho sin cantina - Vicente F.
TTITLE1=Me sacaron del tenampa - Cornerio Reyna
TTITLE2=tequila envenenado - Pumas
TTITLE3=Vino Maldito - Coyote
TTITLE4=Compre una cantina - Ramon ayala
TTITLE5=Borracho naci - Lupillo Rivera
TTITLE6=Con una copa de vino - Vicente F.
TTITLE7=El diablo en una botella - Vagon
TTITLE8=Espejo de cantina - Cardenales
TTITLE9=Me lo habias prometido - Gali Galeano
TTITLE10=Borracho te recuerdo - Vicente F.
TTITLE11=Pa todo el año - Jose alfredo J.
TTITLE12=Jose Perez leon - Tigres del norte
TTITLE13=Abrazado de un poste - L. de Monteclaro
TTITLE14=Quiero cambiar mi pena - Caminantes
TTITLE15=Dos monedas - Ramon Ayala
TTITLE16=Me bebi tu recuerdo - Gali Galeano
TTITLE17=Mi tenampa - Jose Alfredo J.
TTITLE18=La mesa del rincon - Tigres del norte
TTITLE19=A tu salud - Vicente F.
TTITLE20=El ultimo trago - Jose Alfredo J.
TTITLE21=Las botas de charro - Vicente F.
TTITLE22=Con unas copas  - Super Temas
EXTD=
EXTT0=
EXTT1=
EXTT2=
EXTT3=
EXTT4=
EXTT5=
EXTT6=
EXTT7=
EXTT8=
EXTT9=
EXTT10=
EXTT11=
EXTT12=
EXTT13=
EXTT14=
EXTT15=
EXTT16=
EXTT17=
EXTT18=
EXTT19=
EXTT20=
EXTT21=
EXTT22=
PLAYORDER=
